<svg xmlns="http://www.w3.org/2000/svg" viewBox="0 0 80 110" width="120" height="135">
  <rect width="120" height="135" fill="none"/>

  <!-- ESP32 Chip Symbol -->
  <rect x="5" y="5" width="70" height="100" rx="6" ry="6" fill="#14a9e4" stroke="#000" stroke-width="2"/>
  <text x="40" y="35" font-size="20" text-anchor="middle" fill="#e90d0d" font-weight="bold" font-family="monospace">ESP32</text>

  <!-- Chip-Pins -->
  <g stroke="#29dfd6" stroke-width="4">
    <line x1="0" y1="15" x2="5" y2="15"/>
    <line x1="0" y1="35" x2="5" y2="35"/>
    <line x1="0" y1="55" x2="5" y2="55"/>
    <line x1="0" y1="75" x2="5" y2="75"/>
    <line x1="0" y1="95" x2="5" y2="95"/>
    <line x1="75" y1="15" x2="80" y2="15"/>
    <line x1="75" y1="35" x2="80" y2="35"/>
    <line x1="75" y1="55" x2="80" y2="55"/>
    <line x1="75" y1="75" x2="80" y2="75"/>
    <line x1="75" y1="95" x2="80" y2="95"/>
  </g>

  <!-- Gear Gradient -->
  <defs>
    <linearGradient id="gearGradient" x1="0" y1="0" x2="1" y2="1">
      <stop offset="0%" stop-color="#f0d96a"/>
      <stop offset="100%" stop-color="#b449e6"/>
    </linearGradient>
  </defs>

  <!-- Gear -->
  <g transform="translate(40,80) scale(1.2)">
    <path d="M19.43 12.98c.04-.32.07-.65.07-.98s-.03-.66-.07-.98l2.11-1.65a.51.51 0 0 0 .12-.66l-2-3.46a.5.5 0 0 0-.61-.22l-2.49 1
      a7.03 7.03 0 0 0-1.69-.98L14.5 2h-4.99l-.38 2.05c-.62.24-1.19.56-1.7.95l-2.49-1a.5.5 0 0 0-.61.22l-2 3.46a.5.5 0 0 0 .12.66
      l2.11 1.65c-.04.32-.07.65-.07.98s.03.66.07.98l-2.11 1.65a.51.51 0 0 0-.12.66l2 3.46c.14.24.42.34.68.24l2.49-1
      c.51.39 1.08.71 1.7.95l.38 2.05h4.99l.38-2.05c.61-.24 1.18-.56 1.69-.95l2.49 1c.26.1.54 0 .68-.24l2-3.46
      a.5.5 0 0 0-.12-.66l-2.11-1.65zM12 15.5A3.5 3.5 0 1 1 12 8.5a3.5 3.5 0 0 1 0 7z"
      fill="url(#gearGradient)" stroke="#222" stroke-width="1.2"/>
  </g>
</svg>
